<svg width="84" height="84" viewBox="0 0 84 84" fill="none" xmlns="http://www.w3.org/2000/svg">
<rect width="84" height="84" rx="20" fill="#0D62FF"/>
<g clip-path="url(#clip0_15_1674)">
<mask id="mask0_15_1674" style="mask-type:luminance" maskUnits="userSpaceOnUse" x="10" y="10" width="64" height="64">
<path d="M74 10H10V74H74V10Z" fill="white"/>
</mask>
<g mask="url(#mask0_15_1674)">
<path d="M65.92 12.6667H58.08C54.6933 12.6667 52.6667 14.6934 52.6667 18.08V25.92C52.6667 29.3067 54.6933 31.3334 58.08 31.3334H65.92C69.3067 31.3334 71.3333 29.3067 71.3333 25.92V18.08C71.3333 14.6934 69.3067 12.6667 65.92 12.6667ZM67.6267 22.48C66.64 25.6267 63.2 27.3334 62 27.3334C60.8 27.3334 57.3867 25.68 56.3733 22.48C56.2133 22 56.1333 21.4667 56.1333 20.96C56.1333 19.2267 57.0133 17.44 58.8533 16.8534C59.9467 16.5067 61.12 16.6934 61.9467 17.3867C62.8 16.72 63.9733 16.5067 65.0933 16.8534C67.5467 17.6267 68.32 20.3734 67.6267 22.48Z" fill="#F2F4F6"/>
<path d="M58.08 35.3334C52.88 35.3334 48.6667 31.12 48.6667 25.92V18C48.6667 16.5334 47.4667 15.3334 46 15.3334H28.6667C21.3067 15.3334 15.3333 21.28 15.3333 28.6134V47.2C15.3333 54.56 21.3067 60.5334 28.6667 60.5334H32.6667C33.4133 60.5334 34.3733 61.0134 34.8 61.6L38.8 66.9067C40.56 69.2534 43.44 69.2534 45.2 66.9067L49.2 61.6C49.7067 60.9334 50.5067 60.5334 51.3333 60.5334H55.36C62.72 60.5334 68.6667 54.5867 68.6667 47.2267V38C68.6667 36.5334 67.4667 35.3334 66 35.3334H58.08ZM31.3333 42C29.84 42 28.6667 40.8 28.6667 39.3334C28.6667 37.8667 29.84 36.6667 31.3333 36.6667C32.8 36.6667 34 37.8667 34 39.3334C34 40.8 32.8267 42 31.3333 42ZM42 42C40.5067 42 39.3333 40.8 39.3333 39.3334C39.3333 37.8667 40.5067 36.6667 42 36.6667C43.4667 36.6667 44.6667 37.8667 44.6667 39.3334C44.6667 40.8 43.4933 42 42 42Z" fill="#F2F4F6"/>
</g>
</g>
<defs>
<clipPath id="clip0_15_1674">
<rect width="64" height="64" fill="white" transform="translate(10 10)"/>
</clipPath>
</defs>
</svg>
